<svg xmlns="http://www.w3.org/2000/svg" width="1254" height="1254"><path fill="#FCFCFC" d="M0 0h1254v1254H0z" id="svg-layer-0" style="pointer-events: all;"/><path fill="#0152FA" d="M443.554 328.652c5.065.013 10.13.008 15.193.006q13.125-.001 26.25.025c12.65.024 25.301.032 37.952.036q30.795.01 61.59.055 29.895.041 59.79.061l3.73.003 18.526.011q76.708.048 153.415.151c-1.197 3.048-2.396 5.86-4.137 8.637l-1.238 1.982-1.312 2.068-1.364 2.164a300 300 0 0 1-9.14 13.583c-2.135 3.029-4.196 6.105-6.246 9.191l-1.234 1.857-2.738 4.123c-3.232 4.865-6.475 9.723-9.716 14.582l-9.934 14.9q-4.557 6.831-9.101 13.67l-1.467 2.208q-1.443 2.17-2.883 4.344a167 167 0 0 1-2.925 4.257C755 429 755 429 753.965 431.586 752.36 434.963 751 436.727 748 439c-7.195 1.998-15.113 1.249-22.5 1.12q-3.506-.007-7.012-.001c-6.374-.001-12.747-.065-19.12-.138-6.073-.065-12.146-.072-18.219-.085a6119 6119 0 0 1-36.4-.197c-16.497-.134-32.995-.22-49.494-.29l-10.534-.045-12.57-.055q-11.429-.049-22.856-.107c-33.262-.169-66.524-.303-99.787-.032q-5.75.046-11.503.069-6.579.026-13.157.107-2.345.024-4.691.029c-18.176.043-33.52 4.64-46.934 17.332-5.279 5.446-9.282 11.3-12.223 18.293l-.91 2.059c-3.79 10.17-3.912 24.54-.137 34.742 6.504 13.662 15.03 22.878 29.422 28.074 6.599 2.21 12.012 3.272 18.975 3.263l2.577.009q4.28.011 8.563.01l6.136.016q6.615.017 13.231.026c6.992.01 13.984.031 20.976.053 19.884.062 39.769.116 59.654.15q16.467.027 32.934.087c5.801.021 11.603.037 17.405.04q8.21.003 16.421.044 2.99.01 5.977.005c26.792-.038 51.733 4.266 75.776 16.422l2 2c-5.566 8.898-11.385 17.618-17.221 26.34-3.307 4.945-6.605 9.897-9.904 14.847l-4.11 6.165-1.958 2.938-4.698 7.046c-.42.632-.842 1.264-1.276 1.914l-9.468 14.203-2.474 3.711a5768 5768 0 0 1-6.871 10.29c-4.518 6.753-9.022 13.51-13.395 20.359-5.44 8.51-11.07 16.894-16.687 25.288q-3.255 4.87-6.5 9.743-5.22 7.832-10.449 15.66-3.607 5.4-7.212 10.803l-3.684 5.516c-6.504 9.734-12.977 19.48-19.28 29.345a573 573 0 0 1-6.625 10.082l-2.551 3.813-1.311 1.957q-3.418 5.11-6.826 10.23l-3.062 4.594-1.657 2.484-5.843 8.766-2.186 3.279-4.517 6.774q-5.7 8.545-11.39 17.098l-5.556 8.349-2.695 4.052-3.754 5.643-2.176 3.272C473 859 473 859 472 860c-1.35.096-2.705.124-4.059.123l-2.666.006-2.962-.009-3.121.003c-3.48.002-6.959-.004-10.438-.01l-7.449.001q-8.04 0-16.08-.008-11.625-.011-23.25-.012-18.858-.004-37.716-.019-18.324-.014-36.648-.02h-2.28l-11.324-.005q-47.003-.016-94.007-.05c1.5-3.902 3.262-7.103 5.625-10.562l2.164-3.192L230 843q2.005-2.997 4-6l1.914-2.87q1.864-2.794 3.721-5.592c7.494-11.27 15.086-22.477 22.66-33.694 6.892-10.209 13.778-20.421 20.598-30.678 2.795-4.2 5.605-8.39 8.416-12.58C293 749 293 749 294.082 746.376 296 744 296 744 299.669 743.38q2.358-.033 4.715.008l2.624-.017c2.913-.013 5.826.01 8.74.033q3.126-.003 6.252-.012 6.746-.013 13.49.016c7.12.03 14.24.022 21.361.009 13.847-.021 27.694-.006 41.541.015 17.582.025 35.164.038 52.746.01q10.6-.014 21.2.026c4.417.012 8.833.008 13.25 0q3.053-.002 6.106.019c15.845.102 29.99-.915 43.306-10.487l3.188-2.25c8.78-8.584 14.764-19.844 15.105-32.232.118-12.451-3.057-21.912-11.293-31.518-10.247-10.092-23.494-12.144-37.224-12.158l-3.403-.015q-3.656-.016-7.312-.026-5.82-.02-11.64-.053a12976 12976 0 0 0-33.098-.15c-6.757-.02-13.513-.056-20.27-.1q-3.83-.021-7.66-.026C373.45 654.405 329.042 643.584 294 609c-24.94-25.233-43.262-59.17-46-95l-.194-2.248c-1.647-19.813-.503-39.64 5.194-58.752l.674-2.296c5.926-19.643 15.214-37.786 28.025-53.817C284 394 284 394 285 392h2l.793-1.772c14.79-27.297 54.766-45.633 82.703-54.756 24.155-6.96 48.146-6.901 73.058-6.82" id="svg-layer-1" style="pointer-events: all;"/><path fill="#001131" d="M805.375 436.82q2.592.02 5.186.026 5.442.031 10.883.16c4.58.106 9.159.153 13.74.178C895.42 437.522 947.977 451.87 994 492l2.273 1.934c8.848 7.571 16.585 15.872 23.727 25.066l1.305 1.68c30.813 39.973 47.23 88.498 47.008 138.883l-.007 2.661c-.2 51.127-16.721 99.81-47.306 140.776l-1.362 1.842c-34.825 46.816-86.461 78.313-143.388 89.97l-2.86.591c-20.234 3.9-40.433 3.88-60.946 3.83-4.392-.01-8.784-.007-13.175-.005q-11.382.001-22.763-.017c-10.97-.016-21.94-.021-32.91-.024q-26.706-.007-53.41-.036-25.925-.029-51.848-.041l-3.235-.002-16.065-.007Q552.519 899.068 486 899l1.426-2.238 1.887-2.964 1.864-2.926q2.42-3.814 4.815-7.645c5.11-8.165 10.297-16.225 15.832-24.11 3.621-5.188 7.099-10.471 10.597-15.742q2.663-4.002 5.337-7.996c10.2-15.26 20.313-30.575 30.387-45.918a3424 3424 0 0 1 15.105-22.832c5.128-7.68 10.186-15.407 15.25-23.129 5.991-9.136 11.996-18.261 18.065-27.345a1398 1398 0 0 0 9.997-15.217 7769 7769 0 0 1 21.25-32.438l1.605-2.44a4284 4284 0 0 1 17.251-26.057A883 883 0 0 0 665.5 626.5c4.644-7.207 9.373-14.353 14.145-21.476 2.583-3.858 5.155-7.723 7.73-11.586l2.96-4.442 1.371-2.055 2.533-3.8 1.113-1.668L697 579c23.236 22.462 34.109 55.803 35.203 87.578C732.93 709.775 716.526 750.066 689 783q-2.372 2.89-4.738 5.785l-2.427 2.97L680 794q32.143-.054 64.286-.184c9.952-.04 19.903-.072 29.855-.087q13.024-.019 26.049-.084c4.59-.022 9.178-.038 13.768-.037 44.148 0 44.148 0 63.417-8.358l2.495-1.046c32.608-13.997 56.318-39.822 69.751-72.434 1.595-4.214 2.898-8.5 4.129-12.832l.602-2.107c3.03-11.257 4.014-22.452 3.96-34.081l-.014-3.85c-.382-30.685-12.15-59.676-33.888-81.525-23.08-22.512-54.76-31.637-86.322-31.694l-3.937-.03c-3.51-.027-7.02-.043-10.528-.056-3.688-.016-7.375-.042-11.063-.068q-10.438-.068-20.876-.116c-7.933-.039-15.865-.088-23.798-.138Q743.444 545.119 719 545c1.4-3.606 2.955-6.718 5.063-9.969l1.886-2.914a2502 2502 0 0 1 12.217-18.356c4.498-6.711 8.938-13.452 13.256-20.281 2.285-3.592 4.644-7.132 7.015-10.668l3.102-4.64L765 473q4.159-6.217 8.313-12.437l1.991-2.976c.639-.955 1.277-1.911 1.934-2.896l1.689-2.525C781 449 781 449 782.182 446.237c5.156-10.611 12.735-9.728 23.193-9.417" id="svg-layer-2" style="pointer-events: all;"/><path fill="#0338A9" d="m668 561 2 1c-6.131 9.801-12.564 19.398-19 29l-1-3c1.082-1.918 1.082-1.918 2.813-4.187 3.927-5.348 7.42-10.898 10.897-16.542 3.202-5.183 3.202-5.183 4.29-6.271M288 601c4.5 2.182 7.201 5.3 10.352 9.063A70 70 0 0 0 303 615c-3 0-3 0-5.918-2.555a335 335 0 0 1-3.27-3.32l-1.693-1.684C288 603.267 288 603.267 288 601" id="svg-layer-3" style="pointer-events: all;"/><path fill="#00040B" d="m489 894 2 1-1 1 2 2-6 1z" id="svg-layer-4" style="pointer-events: all;"/><path fill="#00050F" d="m932 583 4 4h-3z" id="svg-layer-5" style="pointer-events: all;"/></svg>